<?xml-stylesheet type="text/css" href="style.css"?>
<svg display="none" xmlns="http://www.w3.org/2000/svg">
	<symbol id="facebook" viewBox="0 0 512 512">
		<g>
			<path d="M308.3,508.5c-2.5,0.1-4.1,0.3-5.7,0.3c-34.2,0-68.3-0.1-102.5,0.1c-4.8,0-6.1-1.3-6.1-6.1c0.1-79.6,0.1-159.3,0.1-238.9   c0-2.1,0-4.2,0-6.9c-18.6,0-36.7,0-55.1,0c0-28.4,0-56.3,0-85c1.9,0,3.7,0,5.4,0c15,0,30-0.1,45,0.1c3.8,0,4.8-1.1,4.8-4.8   c-0.2-22.3-0.2-44.7,0-67c0.1-15.6,2.6-30.8,9.8-44.9c10.3-19.9,26.6-32.8,47.2-40.8c16.8-6.6,34.5-9,52.3-9.3   c29-0.4,58-0.2,87-0.3c2.7,0,4.9-0.1,4.9,3.7c-0.1,27.5-0.1,55-0.1,82.5c0,0.3-0.1,0.6-0.5,1.9c-1.7,0-3.6,0-5.5,0   c-18,0-36-0.1-54,0c-10.4,0-18.8,4.2-24.1,13.3c-1.6,2.7-2.6,6.2-2.6,9.4c-0.3,17,0,34-0.2,51c0,4,1.2,5.1,5.1,5.1   c25-0.2,50-0.1,75-0.1c2,0,3.9,0,7.3,0c-3.5,28.6-6.9,56.6-10.4,84.9c-26,0-51.3,0-77.1,0C308.3,340.8,308.3,424.4,308.3,508.5z" />
		</g>
	</symbol>
	<symbol id="instagram" viewBox="0 0 512 512">
		<g>
			<path d="M505,257c0,34.8-0.7,69.7,0.2,104.5c1.5,61.6-37.2,109.2-86.5,130.4c-19.8,8.5-40.6,13-62.1,13c-67.3,0.1-134.7,1-202-0.3   c-50.7-1-92.4-22.2-122.3-64c-15.7-22-23.2-47-23.2-74.1c0-71.7,0-143.3,0-215c0-58.5,28.5-99.4,79.1-126C110.2,14,134.1,9.1,159,9   c65.3,0,130.7-0.4,196,0.2c50.7,0.4,93,19.8,124.2,60.6c17.4,22.8,25.8,49,25.8,77.8C505,184,505,220.5,505,257z M46,257   c0,36.7,0,73.3,0,110c0,16.4,3.8,31.8,12.3,45.7c22.3,36.5,56,54.3,97.8,55c67.1,1,134.3,0.4,201.5,0.2c16.5,0,32.5-3.4,47.4-10.5   c40.6-19.4,63.3-50.3,63.1-96.7c-0.4-71-0.1-142-0.1-213c0-20.1-5.7-38.5-17.6-54.7c-23-31.1-54.8-46.4-92.8-46.8   c-67-0.8-134-0.3-201-0.2c-14.3,0-28.1,2.9-41.5,7.9c-36.8,13.7-71,48.4-69.4,99.5C46.9,188,46,222.5,46,257z" />
			<path d="M257.6,363c-64.5,0-116.5-51.4-116.6-115.4c-0.1-63,52.3-114.6,116.4-114.6c64.3-0.1,116.5,51.4,116.6,114.9   C374,311.3,321.9,362.9,257.6,363z M257.6,326c43.9,0,79.5-35.1,79.4-78.3c-0.1-42.8-35.7-77.8-79.4-77.8   c-43.9,0-79.7,34.9-79.7,78C178,291.1,213.7,326.1,257.6,326z" />
			<path d="M387.5,98c13.5,0,24.5,11.5,24.5,25.6c-0.1,14.1-11.2,25.5-24.7,25.4c-13.3-0.1-24.2-11.5-24.2-25.3   C363,109.6,374,98,387.5,98z" />
		</g>
	</symbol>
	<symbol id="linkedin" viewBox="0 0 512 512">
		<g>
			<path d="M173.5,508.7c0-2.4,0-4.7,0-7c0-107.7,0-215.3,0-323c0-3-0.2-5.4,4.2-5.4c31.8,0.2,63.7,0.1,95.5,0.1   c0.8,0,1.6,0.2,2.9,0.4c0,14,0,27.8,0,41.7c0.4,0.1,0.7,0.3,1.1,0.4c4-5.2,7.8-10.6,12-15.7c12.2-15,27.5-26,45.5-32.6   c9.8-3.6,20.5-5.8,30.8-6.3c14.2-0.6,28.7-0.4,42.7,2c23,3.9,43.3,14.1,60.1,30.8c15.9,15.7,26.4,34.6,32.1,55.9   c3,11.3,4.9,22.9,6.7,34.4c1.2,8,1.8,16.2,1.8,24.2c0.1,65,0.1,130,0.1,195c0,1.6-0.1,3.2-0.2,5.3c-1.9,0-3.5,0-5.1,0   c-30.7,0-61.3-0.1-92,0.1c-5.1,0-6-1.7-6-6.3c0.1-59.8,0.3-119.7-0.1-179.5c-0.1-10.5-1.1-21.4-3.8-31.5   c-4.9-17.7-16.1-30.5-33.9-37c-15-5.5-30.2-6.5-45.6-2.6c-17,4.3-28.7,15.6-37.5,30.5c-6.8,11.5-8.1,24.2-8.2,36.9   c-0.4,60.7-0.2,121.3-0.2,182c0,2.3,0,4.6,0,7.1C241.9,508.7,208,508.7,173.5,508.7z" />
			<path d="M109.1,342.6c0,53.3-0.1,106.6,0.1,159.9c0,4.8-1,6.6-6.3,6.5c-30.5-0.3-61-0.3-91.5,0c-5,0-6.1-1.7-6.1-6.3   c0.1-107.1,0.1-214.3,0-321.4c0-4.3,1.2-5.8,5.6-5.8c30.8,0.2,61.6,0.2,92.5,0c4.8,0,5.7,1.8,5.7,6.1   C109.1,235.3,109.1,289,109.1,342.6z" />
			<path d="M56.1,4.8C89,4,108.7,27.9,108.8,57.2c0.1,30-20.9,52.4-53.9,52.3c-30.7,0-52.4-22-52.3-53.1C2.7,27.3,23.8,3.8,56.1,4.8z" />
		</g>
	</symbol>
	<symbol id="twitter" viewBox="0 0 512 512">
		<g>
			<path d="M4,440.5c55.6,5,105.7-9,151.3-43.2c-47.7-4.2-79.6-28-97.4-72.6c15.6,1.9,30.2,2.4,45.7-1.8   c-51.4-16-78.8-49.6-82.5-103.8c15.4,7.2,29.9,12.4,47,12.6c-30.5-22.9-46.1-52.6-45.5-90c0.3-17.2,4.9-33.4,14-48.7   C93.1,159.1,164,195.7,251.3,201.8c-0.5-3.8-0.8-6.8-1.2-9.9c-7.2-55.4,28.8-105.8,83.8-116.3c34.5-6.6,65,2.5,90.8,26.3   c4,3.6,7.4,4.4,12.4,3.1c20.1-5.1,39.2-12.5,57.7-22.5c-7.1,23.4-21.7,41-41.5,55.8c4.5-0.8,9.1-1.4,13.6-2.3   c4.7-1,9.4-2.1,14.1-3.4c4.5-1.2,8.9-2.6,13.3-4.1c4.5-1.5,9-3.2,14.3-4.1c-2.6,3.6-5.1,7.4-7.9,10.9c-11.6,14.7-25,27.6-39.7,39.1   c-1.5,1.2-2.8,3.8-2.7,5.6c0.8,35.5-4.2,70.1-15.7,103.7c-22.6,66.2-62,119.8-121.1,158.1c-29.2,18.9-61.1,31.3-95.2,38.5   c-33.8,7.1-67.8,8.4-101.9,4.4c-34.2-4-66.7-14.1-97.3-29.9c-8.1-4.1-15.9-8.7-23.8-13.1C3.6,441.3,3.8,440.9,4,440.5z" />
		</g>
	</symbol>
</svg>
